PathFileType	4	(X/Y/Z)	./resultDataOpenSim/trcMotMarkerGrf/sub09/qtm-02-03.trc
DataRate	CameraRate	NumFrames	NumMarkers	Units	OrigDataRate	OrigDataStartFrame	OrigNumFrames
250.000000	250.000000	9	24	m	250.000000	178	472
Frame#	Time	L.Toe.Tip			R.Toe.Tip			L.Ankle.Lat			R.Ankle.Lat			L.Ankle.Med			R.Ankle.Med			L.Heel			R.Heel			L.Knee.Lat			R.Knee.Lat			L.Knee.Med			R.Knee.Med			L.Thigh.Upper			R.Thigh.Upper			L.ASIS			R.ASIS			V.Sacral			L.Acromium			R.Acromium			C7			L.Elbow			R.Elbow			L.Wrist.Lat			R.Wrist.Lat
		X1	Y1	Z1	X2	Y2	Z2	X3	Y3	Z3	X4	Y4	Z4	X5	Y5	Z5	X6	Y6	Z6	X7	Y7	Z7	X8	Y8	Z8	X9	Y9	Z9	X10	Y10	Z10	X11	Y11	Z11	X12	Y12	Z12	X13	Y13	Z13	X14	Y14	Z14	X15	Y15	Z15	X16	Y16	Z16	X17	Y17	Z17	X18	Y18	Z18	X19	Y19	Z19	X20	Y20	Z20	X21	Y21	Z21	X22	Y22	Z22	X23	Y23	Z23	X24	Y24	Z24

178	0.708	0.16749147	0.015599227	0.0035258538	-0.59796606	0.059344685	0.088174218	0.022252032	0.046965869	-0.048117191	-0.65185977	0.19964979	0.12901287	0.034963596	0.068403503	0.048647294	-0.60441378	0.20013973	0.042958553	-0.053114274	0.012601044	-0.008358631	-0.69810492	0.23797012	0.068445131	0.047516024	0.45769815	-0.10106509	-0.26096577	0.42005018	0.19768155	0.040599517	0.46140963	0.024550538	-0.2495063	0.39389812	0.065122126	-0.16398193	0.82467975	-0.15569314	-0.2136697	0.80996562	0.21612611	-0.10347729	0.91325935	-0.087240042	-0.10774309	0.89588211	0.15267727	-0.27595714	0.95457215	0.026196757	-0.12847422	1.3565832	-0.13961211	-0.13632197	1.3655265	0.19176252	-0.19761031	1.4113405	0.027600489	-0.2896194	1.0280265	-0.19268188	-0.26542939	1.0250574	0.27884052	-0.19293048	0.78985906	-0.2542364	-0.11780809	0.79429595	0.29215568
179	0.712	0.16752171	0.015530772	0.0035759001	-0.5926306	0.061599807	0.088893375	0.022512874	0.046815678	-0.048131456	-0.64106816	0.20453076	0.12982945	0.03517514	0.068271995	0.048683713	-0.59345219	0.20339301	0.043976759	-0.053109938	0.012606645	-0.0084242888	-0.68659324	0.24438765	0.069575991	0.051901102	0.45714469	-0.10110625	-0.24916038	0.41964779	0.19817857	0.043930062	0.46066132	0.024289241	-0.23670117	0.3931051	0.06541622	-0.1570961	0.82519151	-0.15606672	-0.20676157	0.81007228	0.21553056	-0.096991389	0.91378454	-0.087606834	-0.10156285	0.89638873	0.15221473	-0.26991387	0.95547838	0.024933569	-0.12149012	1.3571591	-0.13973584	-0.12953241	1.3660688	0.19166127	-0.19072771	1.4120995	0.027510726	-0.28222114	1.0283204	-0.19270483	-0.259235	1.0259371	0.27908106	-0.184351	0.79038529	-0.25426668	-0.11262081	0.79451395	0.29218344
180	0.716	0.16752839	0.015479366	0.0036180422	-0.58656831	0.063999899	0.089760045	0.022753401	0.046677013	-0.048170655	-0.63006107	0.20905851	0.13056092	0.035364965	0.068170505	0.048689129	-0.58227066	0.20668075	0.04469817	-0.053122577	0.012604041	-0.0084890901	-0.67479199	0.25064504	0.070716382	0.056129289	0.45667009	-0.10106817	-0.23715125	0.41941658	0.19829734	0.046998592	0.46001271	0.024051	-0.22387765	0.39266404	0.065626253	-0.15028924	0.82582032	-0.15642674	-0.20006222	0.81037404	0.21497073	-0.090575589	0.91434353	-0.08790735	-0.095506609	0.89699992	0.15184324	-0.26359003	0.95647819	0.024276801	-0.11452134	1.3578013	-0.13985795	-0.12284053	1.3666848	0.1916023	-0.18381954	1.4129658	0.027396459	-0.27487782	1.0286588	-0.19286027	-0.25311826	1.0268358	0.27940785	-0.17572484	0.79099552	-0.25425982	-0.10734145	0.79482219	0.29220764
181	0.72	0.16751891	0.015442081	0.0036624387	-0.57963366	0.066567392	0.090854105	0.022948552	0.046562	-0.048207721	-0.61885869	0.21327634	0.13120088	0.035529051	0.068092307	0.048685822	-0.57091011	0.2099943	0.045171895	-0.053149878	0.012596741	-0.0085340703	-0.66259041	0.25662862	0.071750045	0.059994546	0.45637523	-0.10112913	-0.22490447	0.41932954	0.19795945	0.049786788	0.4594571	0.023788731	-0.21113813	0.39257045	0.065690661	-0.14362314	0.82660261	-0.15676434	-0.19358753	0.81086128	0.21446577	-0.084233787	0.91494926	-0.088135867	-0.089602158	0.89770751	0.15154171	-0.25720645	0.95757402	0.023877498	-0.1075682	1.3585115	-0.13997323	-0.1162598	1.3673904	0.19157578	-0.17690063	1.4139301	0.027256143	-0.26754392	1.0290483	-0.19329031	-0.24704868	1.0277738	0.27977551	-0.16705915	0.79169994	-0.25421101	-0.10205125	0.79520562	0.29221839
182	0.724	0.16749459	0.01541748	0.0037051694	-0.57160682	0.069329114	0.09218788	0.023078744	0.046474052	-0.048234042	-0.60747138	0.2172514	0.1317583	0.035657033	0.068039017	0.048674334	-0.55940991	0.21336604	0.045545669	-0.053192697	0.012587134	-0.008560377	-0.64999255	0.26223185	0.072635829	0.063326154	0.45638659	-0.10153335	-0.21241615	0.41937911	0.19718782	0.052411859	0.45902096	0.02352691	-0.19859434	0.39282649	0.06566738	-0.13713288	0.82755829	-0.15709433	-0.18734724	0.81150894	0.21401995	-0.077972974	0.91560847	-0.088287163	-0.083871346	0.8985005	0.15128178	-0.25088338	0.95876273	0.023561014	-0.10063462	1.3592935	-0.14008424	-0.10976788	1.3681892	0.19157436	-0.16999104	1.4149748	0.027097666	-0.26021788	1.0295055	-0.1939116	-0.24098542	1.0287817	0.28012117	-0.15836077	0.79250337	-0.25411764	-0.096788964	0.79566774	0.29221428
183	0.728	0.16745272	0.015402074	0.0037339072	-0.56236008	0.072295015	0.093675107	0.023139934	0.046406112	-0.048261065	-0.59590368	0.22106192	0.13224248	0.035740149	0.068012181	0.048644321	-0.54776619	0.2168431	0.045916865	-0.053252509	0.012575318	-0.0085788884	-0.63721766	0.26740626	0.073433841	0.066250577	0.45662807	-0.10224541	-0.19970231	0.41957186	0.19606919	0.055007812	0.4587208	0.023311812	-0.18633687	0.39342194	0.065738521	-0.1308431	0.82867685	-0.157432	-0.18133108	0.81228755	0.21361743	-0.071794787	0.91633708	-0.088357761	-0.078281316	0.89937765	0.15106531	-0.24466176	0.96003256	0.023236844	-0.093717104	1.360155	-0.14018283	-0.10333253	1.369079	0.19158889	-0.16311163	1.4160856	0.026937966	-0.25290537	1.0300515	-0.19454876	-0.2349398	1.0298768	0.2804419	-0.14963659	0.79340803	-0.25397641	-0.091564374	0.79622018	0.2922002
184	0.732	0.1673916	0.015391275	0.0037373215	-0.55194015	0.075446743	0.095192038	0.023148299	0.046350988	-0.048310525	-0.5841435	0.22478845	0.13264196	0.035780208	0.068007755	0.048588261	-0.53593772	0.22045964	0.046256079	-0.053327614	0.012560728	-0.0085991869	-0.62455217	0.27210363	0.074154689	0.069105584	0.45682269	-0.10290654	-0.18678535	0.41991902	0.19470796	0.057588415	0.45852869	0.023129061	-0.17443041	0.3943266	0.066061717	-0.12478262	0.82993354	-0.15777001	-0.17549124	0.81317776	0.2132372	-0.065682934	0.9171633	-0.088351439	-0.072740483	0.90035454	0.1509261	-0.23854372	0.96137769	0.022828938	-0.08679864	1.3611042	-0.14024516	-0.096945038	1.3700638	0.19161001	-0.15627302	1.4172643	0.02679211	-0.24561088	1.030705	-0.19509376	-0.22895801	1.0310565	0.28077982	-0.14089063	0.79441835	-0.25378239	-0.086379029	0.79687556	0.29217989
185	0.736	0.16731381	0.015382905	0.0037123559	-0.54050327	0.078721076	0.096691378	0.023133909	0.046309109	-0.0483952	-0.57216126	0.22849587	0.1329344	0.035789911	0.068018653	0.048508129	-0.52393554	0.22421362	0.046494043	-0.05341357	0.012544135	-0.0086232952	-0.61214755	0.27624967	0.074692432	0.072068449	0.45678873	-0.10325221	-0.17368694	0.4204315	0.19320399	0.060111238	0.45840257	0.022932101	-0.16279841	0.39548777	0.066556626	-0.11896607	0.83130862	-0.15808786	-0.16976126	0.81417204	0.21286838	-0.059607359	0.91811364	-0.088281929	-0.067181619	0.90144843	0.15088049	-0.23249681	0.96280342	0.02233086	-0.079855895	1.3621475	-0.14025163	-0.09062043	1.3711512	0.19163466	-0.14947411	1.4185216	0.026667119	-0.23833736	1.0314769	-0.19555681	-0.22304819	1.0323217	0.28113389	-0.1321273	0.79554394	-0.25353037	-0.081235716	0.79764788	0.29215301
186	0.74	0.16722496	0.015377599	0.0036646848	-0.52819699	0.082026941	0.098227741	0.023121488	0.046281167	-0.048506688	-0.55992803	0.23220154	0.13311335	0.03578616	0.068040143	0.048413168	-0.51182777	0.22802563	0.04661588	-0.053505741	0.012528002	-0.008646461	-0.59995642	0.27980311	0.07492027	0.075018154	0.4565729	-0.10335474	-0.16042523	0.42111908	0.19165135	0.062562524	0.4583179	0.022694512	-0.15115432	0.3968483	0.066926391	-0.11336422	0.83279134	-0.15837742	-0.16409801	0.81526648	0.21251208	-0.053548636	0.91919765	-0.08817013	-0.061608736	0.90266305	0.15090799	-0.22647873	0.96431491	0.021812742	-0.072871665	1.3632881	-0.14019902	-0.084368431	1.3723434	0.19166675	-0.14271298	1.4198618	0.026562447	-0.23108373	1.0323723	-0.19599335	-0.21718472	1.0336813	0.28145988	-0.12335622	0.79679577	-0.25321799	-0.076134843	0.79855074	0.29211857
